# xmcd
#
# Track frame offsets: 
#        150
#        14575
#        29442
#        43693
#        56550
#        70104
#        85081
#        101168
#        115358
#        128920
#        142030
#        154843
#        169574
#        184341
#
# Disc length: 2630 seconds
#
# Revision: 0
# Processed by: cddbd v1.5.2PL0 Copyright (c) Steve Scherf et al.
# Submitted via: ExactAudioCopy v0.99pb5
#
DISCID=c50a440e
DTITLE=Various Artists  - Guitar Wizards 1926-1935 [vinyl]
DYEAR=1900
DGENRE=
TTITLE0=Farewell To You Baby
TTITLE1=Badly Mistreated Man
TTITLE2=Mill Man Blues
TTITLE3=You Gonna Quit Me Blues
TTITLE4=Wabash Rag
TTITLE5=Boogie Woogie Dance
TTITLE6=Bumble Bee Blues
TTITLE7=Guitar Chimes
TTITLE8=Panther Squall Blues
TTITLE9=Poor Boy Blues
TTITLE10=Jefferson County Blues
TTITLE11=Some Scream High Yellow
TTITLE12=Ragtime Millionaire
TTITLE13=Joe Louis Blues
EXTD=
EXTT0=
EXTT1=
EXTT2=
EXTT3=
EXTT4=
EXTT5=
EXTT6=
EXTT7=
EXTT8=
EXTT9=
EXTT10=
EXTT11=
EXTT12=
EXTT13=
PLAYORDER=
